<svg width="132" height="38" viewBox="0 0 132 38" fill="none" xmlns="http://www.w3.org/2000/svg">
  <g clip-path="url(#clip0_3961_31387)">
    <path d="M123.58 35.6504H125.867V32.4225L126.988 31.1725L129.792 35.6504H131.995V35.0392L128.53 29.5281L131.659 26.0892V25.4948H129.781L125.856 29.9392V25.4948H123.568L123.58 35.6504ZM118.259 34.0948C116.941 34.0948 116.173 33.6281 116.173 31.7226V25.4948H113.913V31.6837C113.913 34.3003 115.366 35.7837 118.152 35.7837C121.057 35.7837 122.127 34.3003 122.127 31.6837V25.4948H120.221V31.7392C120.221 33.6448 119.531 34.1115 118.287 34.1115L118.259 34.0948ZM107.466 29.2559C108.301 29.2559 108.767 29.6948 108.811 31.0448H105.935C106.098 29.6226 106.714 29.2559 107.466 29.2559ZM110.897 32.3225C110.897 32.2503 110.897 31.9281 110.897 31.667C110.897 29.1559 109.692 27.917 107.438 27.917C105.296 27.917 103.681 29.4337 103.681 31.8837C103.681 34.3337 105.06 35.7726 107.606 35.7726C108.662 35.8111 109.708 35.553 110.622 35.0281V33.6337H109.966C109.374 34.0611 108.658 34.2854 107.925 34.2726C106.737 34.2726 106.008 33.8559 105.901 32.3281L110.897 32.3225ZM99.8517 35.7504C102.094 35.7504 103.064 34.7781 103.064 33.2837C103.064 31.7892 102.302 31.1448 100.468 30.9115C99.4144 30.7837 99.0332 30.5781 99.0332 30.1892C99.0332 29.8003 99.3527 29.5059 100.188 29.5059C100.814 29.4875 101.43 29.6644 101.949 30.0115H102.593V28.4726C101.844 28.1025 101.014 27.9231 100.177 27.9503C98.2818 27.9503 97.1268 28.8059 97.1268 30.3448C97.1268 31.8837 98.0183 32.467 99.7059 32.6726C100.788 32.8003 101.068 33.0226 101.068 33.4837C101.068 33.9448 100.614 34.1948 99.7508 34.1948C99.0613 34.2202 98.3865 33.9927 97.8557 33.5559H97.1829V35.1281C98.0003 35.5685 98.9219 35.7834 99.8517 35.7504ZM94.9963 27.417C95.2974 27.417 95.5862 27.2985 95.7991 27.0875C96.012 26.8765 96.1316 26.5904 96.1316 26.292C96.1316 25.9936 96.012 25.7075 95.7991 25.4965C95.5862 25.2855 95.2974 25.167 94.9963 25.167C94.6952 25.167 94.4064 25.2855 94.1935 25.4965C93.9805 25.7075 93.8609 25.9936 93.8609 26.292C93.8609 26.5904 93.9805 26.8765 94.1935 27.0875C94.4064 27.2985 94.6952 27.417 94.9963 27.417ZM96.056 35.6448V29.417C96.056 28.2503 95.9494 28.017 95.2486 28.017H93.9142V35.6504L96.056 35.6448ZM92.6078 29.6892H92.9722V28.0226C92.8209 27.9788 92.6645 27.9545 92.5069 27.9503C92.1001 27.9586 91.6996 28.0508 91.3308 28.2211C90.962 28.3914 90.6331 28.636 90.3651 28.9392C90.2922 28.1837 90.0679 28.0226 89.7035 28.0226H88.2513V35.6559H90.3651V30.1448C91.0656 29.8193 91.8347 29.665 92.6078 29.6948V29.6892ZM83.323 29.5337C84.2369 29.5337 85.005 29.9837 85.005 31.8337C85.005 33.6837 84.1977 34.1003 83.2557 34.1003C82.7605 34.122 82.273 33.9728 81.8764 33.6781V29.9115C82.3318 29.695 82.8247 29.5668 83.3286 29.5337H83.323ZM83.7996 35.567C85.5152 35.567 87.1636 34.5226 87.1636 31.6448C87.1636 28.9281 85.6778 27.9059 84.1977 27.9059C83.3244 27.8878 82.476 28.1951 81.8204 28.767C81.7363 28.1726 81.5288 28.0226 81.1756 28.0226H79.7122V38.0226H81.854V35.0281C82.4161 35.4175 83.0919 35.6127 83.7771 35.5837L83.7996 35.567ZM78.4227 29.7115H78.7927V28.0448C78.6396 28.0006 78.4813 27.9763 78.3218 27.9726C77.915 27.9808 77.5144 28.0731 77.1457 28.2433C76.7769 28.4136 76.448 28.6582 76.18 28.9614C76.1071 28.2059 75.8884 28.0448 75.5184 28.0448H74.0662V35.6781H76.208V30.167C76.9 29.8458 77.659 29.6916 78.4227 29.717V29.7115ZM69.5808 29.267C70.4162 29.267 70.8872 29.7059 70.9321 31.0559H68.0558C68.2184 29.6337 68.8351 29.267 69.5808 29.267ZM73.0122 32.3337C73.0122 32.2614 73.0402 31.9392 73.0402 31.6781C73.0402 29.167 71.8403 27.9281 69.5808 27.9281C67.439 27.9281 65.8243 29.4448 65.8243 31.8948C65.8243 34.3448 67.2035 35.7837 69.749 35.7837C70.8071 35.8233 71.8549 35.5651 72.7711 35.0392V33.6448H72.1095C71.5191 34.0711 70.8046 34.2953 70.0742 34.2837C68.8856 34.2837 68.1511 33.867 68.0502 32.3392L73.0122 32.3337ZM60.6773 29.4725H61.5856V33.6281C61.5856 35.2115 62.4826 35.7948 63.9628 35.7948C64.4214 35.7973 64.8774 35.728 65.3141 35.5892V34.3114H64.7534C64.0526 34.3114 63.7554 34.1059 63.7554 33.3781V29.4892H65.3085V28.0614H63.7554V26.0281H61.5463V28.0614H60.6493L60.6773 29.4725ZM54.3136 28.0448H52.7998V35.6781H54.9416V29.9392C55.4982 29.7251 56.0883 29.6085 56.6853 29.5948C57.3469 29.5948 57.6384 29.8115 57.6384 30.567V35.6392H59.7802V30.0281C59.7802 28.3114 58.8271 27.8892 57.7113 27.8892C56.7029 27.9111 55.7251 28.2366 54.9079 28.8226C54.8182 28.167 54.6108 28.0059 54.2463 28.0059L54.3136 28.0448ZM44.7148 35.6392H51.6784V34.0504H47.0136V31.2726H50.2431V29.717H47.0136V27.1281H51.499V25.4948H44.7541L44.7148 35.6392Z" fill="#212121"/>
    <path d="M82.1774 23.0721V14.0943C82.1774 13.0721 82.0652 12.8999 81.3419 12.8999H80.0412V23.0721H82.1774ZM76.6659 21.2387C76.3133 21.5822 75.8426 21.7807 75.3483 21.7943C74.625 21.7943 74.1429 21.4609 74.1429 20.722C74.1429 19.9832 74.7035 19.6721 75.567 19.6721C75.9427 19.6678 76.3181 19.6975 76.6883 19.7609L76.6659 21.2387ZM77.9106 23.0721H78.8077V17.7832C78.8077 16.0221 77.72 15.3276 75.595 15.3276C74.5812 15.3161 73.5781 15.5346 72.6627 15.9665V17.4609H73.2626C73.8526 17.0687 74.5481 16.8615 75.2586 16.8665C76.2847 16.8665 76.6659 17.2332 76.6659 17.9276V18.6554C76.1621 18.5292 75.6437 18.4694 75.1241 18.4776C73.3523 18.4776 72.0628 19.2665 72.0628 20.8609C72.0628 22.4554 73.1168 23.1609 74.5522 23.1609C74.9658 23.1934 75.3815 23.1345 75.7693 22.9885C76.1571 22.8424 76.5074 22.6129 76.7949 22.3165C76.9406 22.9276 77.249 23.0721 77.9162 23.0721H77.9106ZM69.9378 14.8499C70.0883 14.8551 70.2384 14.8302 70.379 14.7767C70.5196 14.7232 70.6479 14.6422 70.7562 14.5385C70.8645 14.4348 70.9506 14.3105 71.0094 14.1731C71.0682 14.0357 71.0985 13.888 71.0984 13.7387C71.0985 13.5895 71.0682 13.4417 71.0094 13.3043C70.9506 13.1669 70.8645 13.0427 70.7562 12.939C70.6479 12.8353 70.5196 12.7543 70.379 12.7008C70.2384 12.6473 70.0883 12.6224 69.9378 12.6276C69.6347 12.6246 69.3425 12.739 69.1235 12.9467C68.9045 13.1543 68.7762 13.4386 68.766 13.7387C68.7658 13.889 68.7964 14.0377 68.8559 14.1758C68.9154 14.314 69.0025 14.4388 69.1121 14.5426C69.2216 14.6465 69.3512 14.7273 69.4932 14.7801C69.6351 14.8329 69.7864 14.8566 69.9378 14.8499ZM70.9975 23.0721V16.8387C70.9975 15.6776 70.891 15.4443 70.1901 15.4443H68.8557V23.0721H70.9975ZM65.2337 23.1721C66.1143 23.1878 66.9801 22.9463 67.7231 22.4776V21.0498H66.9943C66.7656 21.2625 66.4954 21.4265 66.2003 21.5316C65.9052 21.6367 65.5915 21.6807 65.2786 21.6609C64.1572 21.6609 63.4115 20.961 63.4115 19.3221C63.4115 17.6832 64.2189 16.9109 65.3346 16.9109C65.901 16.8965 66.4518 17.095 66.8765 17.4665H67.6951V15.8832C66.9674 15.509 66.1539 15.329 65.3346 15.361C63.0022 15.361 61.2417 16.8554 61.2417 19.3109C61.2417 21.7665 62.7275 23.1998 65.2337 23.1998V23.1721ZM56.5489 21.6887C55.5116 21.6887 54.7883 20.9776 54.7883 19.3387C54.7883 17.6998 55.5116 16.8665 56.5489 16.8665C57.5861 16.8665 58.3094 17.6776 58.3094 19.3387C58.3094 20.9998 57.5917 21.6887 56.5489 21.6887ZM56.5489 23.1998C57.071 23.2253 57.5928 23.1421 58.0806 22.9557C58.5684 22.7692 59.0114 22.4837 59.3811 22.1173C59.7508 21.751 60.039 21.3121 60.2272 20.8288C60.4153 20.3454 60.4993 19.8284 60.4736 19.3109C60.4736 18.2796 60.0601 17.2904 59.3241 16.5611C58.588 15.8318 57.5898 15.4221 56.5489 15.4221C55.5079 15.4221 54.5097 15.8318 53.7736 16.5611C53.0376 17.2904 52.6241 18.2796 52.6241 19.3109C52.5984 19.8284 52.6824 20.3454 52.8705 20.8288C53.0587 21.3121 53.3469 21.751 53.7166 22.1173C54.0863 22.4837 54.5293 22.7692 55.0171 22.9557C55.5049 23.1421 56.0267 23.2253 56.5489 23.1998ZM48.0153 23.1998C50.5384 23.1998 51.856 22.0887 51.856 20.1054C51.856 18.2276 50.9197 17.5332 48.677 16.9665C47.4715 16.661 46.7987 16.411 46.7987 15.5998C46.7987 14.7887 47.3986 14.4221 48.5144 14.4221C49.2564 14.4149 49.9793 14.6556 50.5664 15.1054H51.2841V13.4387C50.4068 12.9709 49.4204 12.7409 48.4247 12.7721C46.3277 12.7721 44.8307 13.761 44.8307 15.7387C44.8307 17.4498 45.6998 18.2221 47.5893 18.7721C48.7611 19.1221 49.7927 19.2221 49.7927 20.3165C49.7927 21.0998 49.1872 21.5665 47.9425 21.5665C47.4936 21.5879 47.0452 21.5159 46.6261 21.3552C46.207 21.1944 45.8265 20.9485 45.5091 20.6332H44.7578V22.3609C45.7435 22.9339 46.8733 23.2172 48.0153 23.1776" fill="#212121"/>
    <path d="M40.7556 12.3834V3.49451C40.7556 2.56331 40.3822 1.67023 39.7177 1.01177C39.0532 0.353312 38.1519 -0.0166016 37.2121 -0.0166016H3.54348C2.60369 -0.0166016 1.70238 0.353312 1.03785 1.01177C0.373323 1.67023 0 2.56331 0 3.49451V17.6334C0 18.5646 0.373323 19.4577 1.03785 20.1161C1.70238 20.7746 2.60369 21.1445 3.54348 21.1445H34.0218V28.9612H6.73373V23.2723H0.00561224V32.1612C0.0048752 32.6227 0.0959873 33.0799 0.273733 33.5065C0.45148 33.9331 0.712365 34.3209 1.04148 34.6475C1.3706 34.9741 1.76147 35.2332 2.19175 35.41C2.62203 35.5868 3.08325 35.6778 3.54906 35.6778H37.2121C37.6779 35.6778 38.1391 35.5868 38.5694 35.41C38.9997 35.2332 39.3905 34.9741 39.7197 34.6475C40.0488 34.3209 40.3097 33.9331 40.4874 33.5065C40.6652 33.0799 40.7563 32.6227 40.7556 32.1612V18.0001C40.7556 17.539 40.6639 17.0824 40.4858 16.6564C40.3078 16.2304 40.0467 15.8434 39.7177 15.5173C39.3887 15.1913 38.998 14.9327 38.5681 14.7562C38.1382 14.5798 37.6774 14.4889 37.2121 14.4889H6.73373V6.67228H34.0218V12.3834H40.7556Z" fill="#212121"/>
  </g>
  <defs>
    <clipPath id="clip0_3961_31387">
      <rect width="132" height="38" fill="white"/>
    </clipPath>
  </defs>
</svg>
